<svg xmlns="http://www.w3.org/2000/svg" xmlns:xlink="http://www.w3.org/1999/xlink" width="1900" zoomAndPan="magnify" viewBox="0 0 1425 809.999993" height="1080" preserveAspectRatio="xMidYMid meet" version="1.0"><defs><filter x="0%" y="0%" width="100%" height="100%" id="d8e49a794b"><feColorMatrix values="0 0 0 0 1 0 0 0 0 1 0 0 0 0 1 0 0 0 1 0" color-interpolation-filters="sRGB"/></filter><mask id="4b6516c14e"><g filter="url(#d8e49a794b)"><rect x="-142.5" width="1710" fill="#000000" y="-80.999999" height="971.999992" fill-opacity="0.9882"/></g></mask><clipPath id="cbdb0bc02d"><path d="M 1.210938 0.917969 L 574 0.917969 L 574 730.667969 L 1.210938 730.667969 Z M 1.210938 0.917969 " clip-rule="nonzero"/></clipPath><clipPath id="70c9ea26f6"><path d="M 100 0.917969 L 262 0.917969 L 262 265 L 100 265 Z M 100 0.917969 " clip-rule="nonzero"/></clipPath><clipPath id="a10e80293b"><rect x="0" width="575" y="0" height="731"/></clipPath></defs><g mask="url(#4b6516c14e)"><g transform="matrix(1, 0, 0, 1, 420, 34)"><g clip-path="url(#a10e80293b)"><g clip-path="url(#cbdb0bc02d)"><path fill="#000000" d="M 409.4375 730.675781 C 409.4375 730.675781 408.992188 730.675781 408.183594 730.625 C 408.058594 730.625 407.910156 730.601562 407.769531 730.601562 C 388.777344 729.574219 214.996094 715.34375 208.820312 540.667969 C 204.75 425.722656 344.488281 351.691406 234.1875 349.238281 C 123.894531 346.785156 93.253906 454.714844 1.34375 345.558594 C 1.34375 345.558594 49.136719 285.460938 100.609375 264.613281 C 100.609375 264.613281 92.8125 153.90625 199.871094 110.074219 C 199.871094 110.074219 193.746094 29.125 261.148438 0.914062 C 261.148438 0.914062 331.664062 65.722656 271.933594 129.796875 C 271.933594 129.796875 288.699219 121.917969 305.339844 103.421875 C 305.339844 103.421875 552.203125 171.226562 572.425781 360.273438 C 598.117188 600.546875 194.113281 615.902344 409.4375 730.675781 " fill-opacity="1" fill-rule="nonzero"/></g><path fill="#ed1c24" d="M 428.238281 411.101562 C 428.238281 411.101562 414.464844 373.621094 392.550781 366.554688 L 392.574219 366.605469 C 393.457031 368.464844 422.941406 433.105469 352.5 543.046875 C 292.230469 637.09375 314.925781 674.894531 323.527344 684.460938 C 323.578125 684.535156 323.628906 684.582031 323.679688 684.632812 C 324.851562 685.90625 325.734375 686.644531 326.101562 686.914062 C 326.125 686.933594 326.175781 686.964844 326.203125 687.015625 C 325.148438 686.59375 306.179688 683.605469 290.609375 664.839844 C 275.539062 646.734375 263.675781 613.910156 274.191406 554.574219 C 280.121094 521.070312 328.113281 444.753906 310.027344 407.839844 C 310.027344 407.839844 297.671875 442.648438 270.515625 463.203125 C 271.863281 460.820312 341.542969 338.6875 253.554688 316.835938 C 180.585938 298.703125 94.238281 392.875 32.960938 346.265625 C 32.960938 346.265625 57.9375 337.238281 93.675781 318.234375 C 124.113281 302.042969 162.402344 278.613281 199.730469 247.363281 C 199.730469 247.363281 199.753906 247.339844 199.828125 247.3125 C 203.382812 244.324219 206.9375 241.253906 210.464844 238.140625 C 267.890625 187.335938 354.851562 187.167969 411.273438 261.394531 C 411.273438 261.394531 381.691406 243.167969 356.570312 241.601562 C 356.570312 241.601562 381.667969 250.527344 402.375 281.53125 C 419.535156 307.167969 433.703125 347.886719 428.238281 411.101562 " fill-opacity="1" fill-rule="nonzero"/><path fill="#393536" d="M 573.527344 385.851562 C 573.714844 377.621094 573.371094 369.105469 572.429688 360.273438 C 562.296875 265.511719 435.785156 158.304688 345.414062 162.136719 C 409.894531 183.699219 478.046875 254.832031 454.613281 335.914062 C 440.59375 384.425781 451.007812 408.480469 451.007812 408.480469 C 472.636719 354.757812 498.578125 361.902344 499.476562 383.222656 C 505.085938 516.328125 425.769531 571.652344 425.769531 571.652344 C 514.199219 511.132812 558.308594 406.042969 518.203125 306.621094 C 508.515625 282.617188 494.730469 260.132812 475.445312 241.300781 C 475.445312 241.300781 550.785156 292.324219 573.527344 385.851562 " fill-opacity="1" fill-rule="nonzero"/><path fill="#ffffff" d="M 116.910156 247.539062 C 116.910156 247.539062 125.285156 248.355469 139.171875 217.28125 C 153.0625 186.214844 193.296875 174.765625 210.046875 190.300781 C 210.046875 190.300781 194.933594 184.78125 180.636719 193.367188 C 180.636719 193.367188 187.253906 207.628906 181.042969 221.367188 C 166.542969 253.460938 116.910156 247.539062 116.910156 247.539062 " fill-opacity="1" fill-rule="nonzero"/><path fill="#ffffff" d="M 428.238281 411.101562 C 428.238281 411.101562 414.464844 373.621094 392.550781 366.554688 C 392.550781 366.554688 424 431.460938 352.5 543.046875 C 292.230469 637.09375 314.925781 674.894531 323.527344 684.460938 C 266.910156 628.898438 327.777344 528.121094 359.148438 456.453125 C 391.015625 383.691406 362.425781 280.820312 362.425781 280.820312 C 362.425781 302.238281 346.886719 327.253906 346.886719 327.253906 C 346.886719 327.253906 353.433594 276.550781 310.957031 247.363281 C 269.335938 218.757812 202.570312 246.164062 199.828125 247.3125 C 203.382812 244.324219 206.9375 241.253906 210.464844 238.140625 C 267.890625 187.335938 354.851562 187.167969 411.273438 261.394531 C 411.273438 261.394531 381.691406 243.167969 356.570312 241.601562 C 356.570312 241.601562 440.296875 271.402344 428.238281 411.101562 " fill-opacity="1" fill-rule="nonzero"/><g clip-path="url(#70c9ea26f6)"><path fill="#393536" d="M 213.722656 130.210938 C 128.941406 149.957031 100.609375 264.613281 100.609375 264.613281 C 100.609375 264.613281 92.8125 153.90625 199.871094 110.074219 C 199.871094 110.074219 193.746094 29.125 261.148438 0.914062 C 206.441406 43.332031 213.722656 130.210938 213.722656 130.210938 " fill-opacity="1" fill-rule="nonzero"/></g><path fill="#ffffff" d="M 224.335938 124.171875 C 224.335938 124.171875 230.425781 121.992188 238.636719 120.058594 C 246.65625 118.164062 256.699219 116.507812 265.058594 117.351562 C 265.058594 117.351562 292.5625 99.210938 282.75 60.59375 C 282.75 60.59375 279.769531 72.546875 276.78125 76.804688 C 276.78125 76.804688 282.75 57.820312 276.78125 35.839844 C 276.78125 35.839844 273.800781 49.480469 269.113281 56.3125 C 269.234375 55.632812 273.5 31.777344 262.710938 16.214844 C 262.710938 16.214844 262.710938 16.214844 262.703125 16.21875 C 262.144531 16.644531 226.03125 44.148438 224.335938 124.171875 " fill-opacity="1" fill-rule="nonzero"/><path fill="#ed1c24" d="M 238.636719 120.058594 C 235.375 52.738281 262.277344 16.789062 262.703125 16.21875 C 262.144531 16.644531 226.03125 44.148438 224.335938 124.171875 C 224.335938 124.171875 230.425781 121.992188 238.636719 120.058594 " fill-opacity="1" fill-rule="nonzero"/></g></g></g></svg>